<svg width="32" height="32" viewBox="0 0 431 431" fill="none" xmlns="http://www.w3.org/2000/svg">
<path d="M169.426 12.3051C132.618 18.2585 95.8098 35.2164 68.0231 58.8494C38.0713 84.2863 12.6303 129.207 3.24779 173.045C-1.0826 193.431 -1.0826 238.351 3.24779 257.474C20.028 332.522 67.6623 387.185 136.046 410.096C176.283 423.446 225.902 423.446 265.597 410.096C291.76 401.437 328.027 380.149 340.296 366.438C343.544 362.65 343.003 363.011 337.77 367.34C286.708 410.637 213.452 424.528 149.037 402.88C87.149 382.314 37.1691 328.734 20.5693 265.953C-6.13471 163.484 52.1451 58.3082 153.187 26.3767C191.98 14.1092 240.697 15.372 280.032 29.4435C294.286 34.4948 319.185 48.5663 330.914 57.9474C337.409 62.9987 341.018 65.3439 339.033 63.1791C329.109 51.8136 297.353 32.33 275.882 24.2118C250.441 14.47 237.991 12.3051 207.317 11.5835C191.439 11.2227 174.478 11.5835 169.426 12.3051Z" fill="#2F7B06"/>
<path d="M246.455 0.910344C286.548 7.18903 326.64 25.0737 356.907 49.9982C389.531 76.8253 417.243 124.201 427.462 170.435C432.179 191.934 432.179 239.31 427.462 259.478C409.185 338.627 357.3 396.277 282.813 420.44C238.986 434.52 184.939 434.52 141.702 420.44C113.205 411.308 73.7013 388.857 60.337 374.397C56.7993 370.401 57.3889 370.782 63.0884 375.348C118.708 421.011 198.5 435.661 268.663 412.83C336.074 391.14 390.514 334.632 408.595 268.42C437.682 160.351 374.202 49.4274 264.143 15.7508C221.888 2.81296 168.824 4.14479 125.979 18.9853C110.453 24.3127 83.3314 39.1532 70.5567 49.0469C63.4815 54.3743 59.5508 56.8477 61.7127 54.5645C72.5221 42.5779 107.112 22.0295 130.5 13.4677C158.211 3.1935 171.772 0.910322 205.182 0.14927C222.477 -0.231257 240.952 0.149292 246.455 0.910344Z" fill="#2F7B06" fill-opacity="0.67"/>
<path d="M226.082 46.4014C215.437 53.2568 213.452 55.9629 212.55 65.1635C212.189 69.4932 212.369 71.658 212.911 70.2148C215.437 64.8027 224.639 52.1744 226.443 52.1744C227.345 52.1744 225.721 56.5041 222.834 61.5554C219.948 66.7871 217.061 73.4621 216.339 76.5289L215.076 81.941L221.03 76.5289C224.097 73.4621 228.247 67.8695 229.871 63.9006C232.939 57.0453 236.367 41.3501 234.923 41.3501C234.563 41.3501 230.593 43.6954 226.082 46.4014Z" fill="#74A758"/>
<path d="M159.503 49.8291C159.503 50.9116 162.39 55.4217 165.818 59.7514C171.953 68.05 186.207 76.7093 190.537 75.0857C193.244 74.1837 178.629 59.9318 173.576 58.3081C171.772 57.7669 170.329 56.6845 170.329 55.7825C170.329 52.7156 181.876 58.4885 189.815 65.5243C194.507 69.6736 194.867 68.2304 190.718 61.0142C189.094 58.1277 184.944 54.5197 181.876 53.0764C174.479 49.6487 159.503 47.4839 159.503 49.8291Z" fill="#2F7B06"/>
<path d="M271.371 62.0966C269.025 73.2817 270.108 84.6471 273.897 91.6829L276.423 96.193L277.686 90.2397C278.408 86.9924 278.408 79.7762 277.686 74.0033C276.784 66.6067 276.964 64.4419 278.588 65.8851C279.671 66.9675 281.114 73.1013 282.017 79.4154L283.28 90.9613L285.806 83.3843C287.79 76.7094 287.79 74.7249 285.084 67.8696C283.46 63.5399 280.212 58.1277 277.867 55.9629L273.536 51.8136L271.371 62.0966Z" fill="#2F7B06"/>
<path d="M132.798 61.7359C126.664 71.1169 124.859 78.6939 127.385 87.1729L129.551 94.5694L130.994 82.8432C133.34 65.8852 135.866 65.344 135.685 81.9412C135.685 98.7187 138.211 102.688 141.459 90.9614C143.985 82.1216 143.083 70.3953 139.294 61.3751L136.948 55.7826L132.798 61.7359Z" fill="#74A758"/>
<path d="M201.002 78.5133C197.754 96.0125 199.739 122.532 206.415 149.593C212.189 172.504 215.978 210.93 212.55 210.93C211.467 210.93 207.678 205.698 204.069 199.204C187.109 169.798 143.444 118.383 115.477 95.1105C98.1552 80.4978 100.501 87.8943 119.446 107.198C135.505 123.614 155.894 148.51 155.894 151.938C155.894 153.561 144.707 151.938 129.731 148.33C116.199 145.082 88.7727 131.913 77.5859 123.434C67.6621 115.857 66.5795 116.759 75.7816 124.877C86.6075 134.439 101.944 143.82 115.296 149.412C127.205 154.463 151.383 160.417 159.322 160.417C163.472 160.417 171.591 171.963 185.124 197.76C195.408 217.064 202.084 235.465 203.708 249.536C204.791 257.655 204.43 259.639 202.445 259.639C201.182 259.639 189.815 253.686 177.546 246.469C165.096 239.253 151.022 231.676 145.97 229.692C137.129 226.084 136.948 225.723 136.587 217.966C134.964 190.003 133.881 183.869 130.814 183.869C127.927 183.869 127.385 186.034 126.664 201.008C126.122 210.569 125.22 218.687 124.679 219.228C121.792 222.295 85.5249 190.905 85.5249 185.493C85.5249 184.591 84.2619 183.869 82.8184 183.869C79.2098 183.869 79.2098 184.591 85.8858 196.858C89.1336 202.812 97.2531 213.636 103.929 220.852C110.605 228.068 116.199 234.202 116.199 234.563C116.199 235.645 67.3012 233.12 56.8361 231.676C45.4689 230.053 42.9428 233.48 53.4079 236.186C57.7383 237.269 62.4295 238.532 63.873 238.892C65.3165 239.253 80.6533 241.779 97.9748 244.305C134.964 249.717 146.15 254.046 163.111 269.922C173.576 279.483 176.824 284.535 171.23 282.55C169.787 281.829 162.389 280.927 154.631 280.385C143.083 279.303 137.85 277.86 125.581 271.726C110.605 264.329 110.605 264.329 87.6901 263.969L64.7752 263.608L82.8184 264.871C102.846 266.314 116.199 270.102 124.138 276.417L129.37 280.746L120.529 282.911C110.064 285.617 90.9379 293.916 90.9379 295.72C90.9379 296.441 94.1857 296.081 97.9748 294.637C110.425 290.308 134.422 288.323 148.496 290.308C175.741 294.096 186.567 305.281 186.567 329.094C186.567 351.104 178.989 361.387 156.255 370.407L141.098 376.541L151.744 380.51C175.922 389.53 207.858 393.138 234.382 389.71C249.538 387.726 281.294 378.525 284.542 375.278C285.444 374.376 280.392 372.031 273.355 369.866C250.621 363.01 244.306 352.547 244.306 322.42C244.306 302.214 247.373 295.9 260.545 288.504C267.942 284.354 270.468 283.994 291.218 283.994C310.705 284.174 315.577 284.715 327.124 288.864C338.852 292.833 339.935 293.014 336.146 289.947C333.8 287.962 326.944 284.174 321.17 281.287C314.855 278.221 311.427 275.695 313.051 275.154C321.892 271.906 348.235 266.314 358.881 265.051L371.511 263.788L359.783 263.608C353.287 263.427 337.95 265.412 325.5 267.757C312.509 270.463 296.451 272.267 287.61 272.267C279.129 272.267 266.679 273.53 259.643 274.973C252.786 276.417 246.832 277.679 246.651 277.679C246.471 277.679 247.012 275.515 248.095 272.808C254.049 257.294 281.294 228.609 306.916 210.749C320.99 201.188 349.678 185.673 353.828 185.673C356.535 185.673 356.715 184.05 354.55 180.442C353.107 178.277 351.122 178.457 341.379 182.065C335.244 184.23 323.155 189.281 314.855 193.07C306.555 197.039 299.518 200.106 299.157 200.106C298.796 200.106 298.436 197.941 298.436 195.415C298.436 192.709 296.812 183.508 294.646 174.669C291.218 159.876 290.677 158.793 287.429 160.417C284.542 162.04 284.001 164.386 284.001 177.014C284.001 196.678 281.294 204.616 271.371 214.538C262.169 223.739 239.614 243.403 238.351 243.403C237.81 243.403 236.908 237.088 236.367 229.331C235.645 221.754 233.841 207.863 232.217 198.482C227.165 167.813 231.315 148.69 247.012 130.289C250.621 126.14 262.71 116.398 274.077 108.821C285.444 101.064 294.827 94.2085 294.827 93.4869C294.827 92.7652 285.625 97.4557 274.618 104.131C250.08 118.743 230.412 137.145 225.36 150.134C223.556 155.005 221.571 158.071 220.669 157.35C217.602 154.103 208.219 122.351 206.415 109.002C205.332 101.064 204.971 88.2551 205.693 80.4978C207.137 62.9986 204.069 61.7358 201.002 78.5133Z" fill="#2F7B06"/>
<path d="M296.451 75.6268L292.121 79.4153L298.075 76.5288C306.555 72.3795 307.277 74.364 299.338 79.2349C295.729 81.3997 293.203 83.5646 293.564 84.1058C295.008 85.549 306.555 79.7761 309.983 75.8072L313.412 72.0187H307.097C303.127 72.0187 298.977 73.462 296.451 75.6268Z" fill="#2F7B06"/>
<path d="M230.773 85.1883C221.932 88.616 217.421 92.5849 214.354 99.9814L211.467 106.837L220.85 98.5382C233.66 86.9924 236.006 87.8944 224.639 99.801C212.911 112.249 212.189 116.218 222.293 110.986C228.969 107.558 236.006 99.6206 240.517 90.42L244.306 82.8431L240.336 83.0235C237.991 83.0235 233.66 84.1059 230.773 85.1883Z" fill="#74A758"/>
<path d="M255.493 93.126C252.245 94.7497 248.276 98.3577 246.832 101.064C243.223 108.28 243.765 111.708 247.554 105.393C250.982 99.9814 256.936 94.028 256.936 96.1929C256.936 96.9145 254.771 100.523 252.245 104.491C246.471 112.97 248.095 116.579 254.23 109.362C258.019 105.213 263.251 92.0436 261.808 90.7808C261.628 90.42 258.741 91.5024 255.493 93.126Z" fill="#2F7B06"/>
<path d="M284.001 111.708C281.836 113.151 282.197 113.512 285.625 113.512C290.677 113.512 304.029 117.12 306.375 119.104C307.277 120.006 300.962 120.006 292.12 119.465C273.716 118.202 272.273 120.547 288.692 125.418C298.075 128.124 305.112 127.944 315.216 125.058C318.283 123.975 318.283 123.614 314.314 119.465C312.149 116.939 307.999 113.873 305.292 112.429C299.699 109.543 287.971 109.182 284.001 111.708Z" fill="#74A758"/>
<path d="M336.507 115.857C334.161 116.939 330.914 120.006 329.29 122.532C326.403 126.862 326.583 126.862 333.259 121.81C337.048 118.924 340.657 117.12 341.198 117.841C341.92 118.383 340.657 120.187 338.492 121.81C336.146 123.434 335.064 125.599 335.605 126.681C336.327 127.944 336.327 128.305 335.424 127.583C333.801 126.14 329.109 129.207 329.109 131.552C329.109 132.454 330.733 132.634 332.718 132.093C336.507 131.011 348.957 118.202 348.957 115.316C348.957 112.79 341.74 113.151 336.507 115.857Z" fill="#74A758"/>
<path d="M100.501 123.795C97.2531 125.418 94.5466 127.403 94.5466 128.124C94.5466 128.666 98.5162 131.011 103.388 133.176C112.409 136.964 129.37 138.227 133.881 135.521C136.587 133.717 125.22 129.748 116.92 129.568C114.033 129.568 110.064 128.846 108.079 127.944C105.553 126.681 108.981 126.32 118.544 126.681C132.077 127.042 132.257 126.862 128.468 123.975C123.235 120.006 108.44 119.826 100.501 123.795Z" fill="#74A758"/>
<path d="M170.328 125.96C170.328 134.078 180.793 151.036 188.552 155.726L194.145 158.974L192.882 154.824C192.161 152.479 188.733 146.706 185.485 141.835C182.056 137.145 179.35 132.815 179.35 132.093C179.35 130.109 186.748 137.506 192.522 145.083L197.935 152.299L196.852 146.526C195.048 137.686 190.717 132.274 181.876 128.125C173.396 123.975 170.328 123.434 170.328 125.96Z" fill="#2F7B06"/>
<path d="M302.766 134.078C299.699 135.521 295.729 138.408 294.105 140.753C289.594 147.428 290.677 147.969 296.812 142.196C305.292 134.258 307.457 135.882 299.338 144.18C291.218 152.479 291.579 154.644 299.879 149.593C305.112 146.345 312.87 136.423 312.87 132.815C312.87 130.831 309.081 131.372 302.766 134.078Z" fill="#74A758"/>
<path d="M59.9037 137.325C53.2277 139.67 53.5885 140.933 61.708 145.443C70.1883 150.134 79.5708 151.757 86.4273 149.773C91.8403 148.33 91.6598 148.33 82.0969 145.263C76.6839 143.639 70.7296 142.376 68.9253 142.376C67.121 142.376 65.6775 141.474 65.6775 140.392C65.6775 138.407 77.4056 139.31 85.3447 141.835C87.149 142.376 86.6077 141.294 83.9012 138.949C79.3904 134.799 68.5644 134.078 59.9037 137.325Z" fill="#2F7B06"/>
<path d="M89.6751 155.907C84.8035 158.072 74.6992 169.798 74.6992 173.406C74.6992 175.571 84.9839 175.21 93.1034 172.684C96.8924 171.602 103.027 167.813 106.816 164.566L113.492 158.432L107.177 159.695C103.749 160.236 97.7946 162.401 94.186 164.205C90.3969 166.19 86.6078 167.633 85.3448 167.633C82.097 167.633 91.4795 160.778 100.321 156.809L108.079 153.201L101.764 153.381C98.3359 153.381 92.9229 154.463 89.6751 155.907Z" fill="#2F7B06"/>
<path d="M252.786 165.829C246.651 167.633 243.043 170.519 240.336 175.571C238.532 178.818 239.434 178.457 245.027 174.127C253.869 167.453 255.492 169.437 247.193 176.653C239.975 183.148 238.532 186.936 244.847 183.689C250.801 180.622 256.936 174.669 259.823 168.896C262.71 163.484 261.808 163.123 252.786 165.829Z" fill="#2F7B06"/>
<path d="M41.4995 185.313C40.2364 187.297 50.5211 197.039 57.558 200.647C60.6253 202.09 66.3992 204.075 70.1883 204.796L77.4056 206.059L73.9774 202.09C71.9926 200.106 66.2188 196.317 60.8058 193.792C55.5732 191.266 51.2428 188.74 51.2428 188.379C51.2428 186.936 60.6253 189.462 68.2035 193.07C72.173 195.054 75.6013 196.317 75.7817 195.956C76.6839 195.235 71.9926 190.003 67.4818 186.936C62.7905 183.689 43.3038 182.607 41.4995 185.313Z" fill="#74A758"/>
<path d="M151.383 198.662C153.909 210.569 163.833 225.903 173.035 232.218C177.726 235.465 182.057 237.63 182.418 237.269C183.861 235.826 173.757 218.687 167.261 210.93C163.833 206.961 161.668 203.714 162.57 203.714C164.555 203.714 181.876 221.574 184.402 226.264C186.207 229.512 186.387 229.331 186.568 224.46C186.568 214.899 179.531 205.157 168.524 199.745C163.111 197.039 156.616 194.333 154.27 193.792C150.301 192.529 150.12 192.89 151.383 198.662Z" fill="#74A758"/>
<path d="M246.291 205.157C242.682 208.765 240.697 212.373 240.697 215.801L240.878 220.852L243.223 215.26C246.11 208.945 251.343 204.255 248.997 210.208C246.291 216.522 244.125 225.723 244.847 226.445C246.291 228.068 251.523 218.326 253.147 210.569C255.493 200.106 253.147 198.302 246.291 205.157Z" fill="#74A758"/>
<path d="M330.553 206.961C325.862 210.028 325.862 210.028 339.214 209.487C348.235 208.946 352.566 209.306 352.566 210.75C352.566 212.012 348.777 212.734 343.183 212.734C337.951 212.914 331.275 213.997 328.207 215.26L322.794 217.605L329.651 219.048C343.003 221.754 367.361 215.801 364.113 210.75C359.963 204.075 338.672 201.549 330.553 206.961Z" fill="#2F7B06"/>
<path d="M79.2099 219.95C79.7512 220.852 80.6534 221.754 81.1947 221.754C81.5555 221.754 81.9164 220.852 81.9164 219.95C81.9164 218.868 81.0142 218.146 79.9316 218.146C79.0295 218.146 78.6686 218.868 79.2099 219.95Z" fill="#2F7B06"/>
<path d="M89.1338 218.868C89.1338 219.229 90.7577 219.95 92.7424 220.491C94.7272 221.033 95.9902 220.672 95.2685 219.77C94.3663 218.146 89.1338 217.425 89.1338 218.868Z" fill="#2F7B06"/>
<path d="M83.7209 223.558C83.7209 224.46 84.6231 225.362 85.7057 225.362C86.6079 225.362 86.9687 224.46 86.4274 223.558C85.8861 222.476 84.984 221.754 84.4427 221.754C84.0818 221.754 83.7209 222.476 83.7209 223.558Z" fill="#2F7B06"/>
<path d="M346.25 228.97C343.002 230.414 343.002 230.594 345.889 230.594C350.4 230.774 367 238.171 367 239.975C367 240.697 363.933 240.336 360.143 239.073C356.535 237.81 349.859 236.187 345.348 235.465L337.229 234.202L342.281 238.712C348.054 244.124 357.617 247.011 369.346 247.011C378.548 247.011 379.269 246.289 375.119 240.336C368.624 231.135 354.189 225.362 346.25 228.97Z" fill="#74A758"/>
<path d="M42.2212 247.191C46.1907 252.603 52.3254 256.031 58.0993 256.031C59.9036 255.851 58.821 254.949 55.7537 253.505C52.6863 252.243 49.0777 249.717 47.6342 247.913C45.1081 244.846 45.1081 244.666 49.2581 246.83C51.6037 248.093 55.9341 249.897 58.821 250.799C63.5123 252.062 63.8731 251.882 61.8884 249.536C58.2797 245.207 50.1603 241.599 44.0255 241.599H38.4321L42.2212 247.191Z" fill="#74A758"/>
<path d="M280.392 249.897C273.897 252.242 269.205 255.129 267.582 258.015C266.138 260.721 266.679 260.721 273.175 257.655C276.964 255.85 282.016 254.227 284.362 254.227C287.249 254.227 284.903 256.031 277.325 259.819C267.401 264.51 262.89 268.659 267.401 268.659C276.242 268.659 301.503 254.948 298.436 251.882C296.992 250.438 283.279 248.995 280.392 249.897Z" fill="#74A758"/>
<path d="M340.657 253.505C337.409 256.031 337.409 256.211 341.379 254.227C348.055 250.98 350.4 253.325 343.905 256.753C340.477 258.557 338.131 260.361 338.672 260.721C339.935 261.984 349.679 256.933 352.385 253.505C354.55 250.98 354.19 250.619 349.498 250.619C346.611 250.619 342.642 251.882 340.657 253.505Z" fill="#2F7B06"/>
<path d="M110.605 255.851L106.455 259.278L113.672 260.361C117.642 261.082 122.874 260.902 125.22 259.819C129.19 258.196 128.829 258.015 121.792 258.015C113.312 257.835 113.312 255.129 121.611 253.686C125.581 252.964 125.401 252.964 120.529 252.603C117.281 252.603 112.951 253.866 110.605 255.851Z" fill="#74A758"/>
<path d="M49.9798 263.608C45.2886 269.742 45.469 270.644 50.7016 269.381C53.408 268.84 57.0167 267.036 58.4602 265.592C60.8058 263.067 60.8058 263.067 57.1971 264.871C51.4233 267.757 47.8146 267.216 51.9646 264.149C53.9493 262.706 54.6711 261.443 53.5885 261.443C52.5059 261.443 50.882 262.525 49.9798 263.608Z" fill="#2F7B06"/>
<path d="M363.392 269.922C372.052 271.546 372.052 274.613 363.392 273.35C357.798 272.628 356.174 272.808 357.979 274.071C359.422 274.973 364.294 275.875 368.805 275.875L376.924 275.695L372.594 272.267C370.248 270.283 366.278 268.84 363.572 268.84L358.881 269.2L363.392 269.922Z" fill="#2F7B06"/>
<path d="M97.6141 279.844C90.3968 287.06 93.4641 288.504 104.831 282.911C109.523 280.746 112.41 278.581 111.327 278.221C110.064 277.679 106.816 278.762 103.749 280.385C96.8924 283.813 96.3511 281.468 103.208 277.319C105.914 275.515 106.997 274.071 105.734 274.071C104.29 274.071 100.681 276.597 97.6141 279.844Z" fill="#74A758"/>
<path d="M301.323 289.045C306.916 292.292 313.772 298.065 315.577 301.132C316.84 303.116 316.118 303.116 312.87 300.771C305.112 295.359 294.466 289.947 293.383 291.029C292.842 291.751 295.007 294.998 298.436 298.426C304.209 304.379 320.809 311.776 323.155 309.431C323.696 308.889 322.794 304.92 320.809 300.952C317.201 292.653 309.081 286.7 302.044 286.7C297.714 286.88 297.714 286.88 301.323 289.045Z" fill="#74A758"/>
<path d="M118.184 298.606C116.018 301.493 114.395 306.003 114.395 309.791C114.395 315.745 114.575 315.925 118.544 313.4C123.597 309.972 130.633 299.689 130.633 295.9C130.453 293.014 126.844 296.442 120.529 305.462C119.266 307.446 117.642 308.529 117.101 307.987C116.56 307.627 118.184 304.199 120.71 300.591C125.762 293.014 123.777 291.571 118.184 298.606Z" fill="#74A758"/>
<path d="M83.7207 304.74C80.112 308.348 77.4055 315.745 78.6686 319.172C79.5707 321.878 90.3967 314.301 95.088 307.987C100.681 300.41 97.4336 300.05 90.0358 307.446C82.2772 315.384 79.7512 314.843 86.4272 306.724C91.6597 300.591 89.4945 298.967 83.7207 304.74Z" fill="#74A758"/>
</svg>
